<svg xmlns="http://www.w3.org/2000/svg" width="300" height="211.579" viewBox="0 0 300 211.579"><svg xmlns="http://www.w3.org/2000/svg"><defs><linearGradient id="b" x1="97.857" x2="223.104" y1="-7.129" y2="172.347" gradientUnits="userSpaceOnUse"><stop offset="0" stop-color="#133b7c"/><stop offset="1" stop-color="#087dbd"/></linearGradient><linearGradient id="c" x1="192.485" x2="244.263" y1="104.599" y2="185.225" gradientUnits="userSpaceOnUse"><stop offset="0" stop-color="#0b68a7"/><stop offset="1" stop-color="#0386c7"/></linearGradient><linearGradient id="d" x1="142.531" x2="152.717" y1="215.816" y2="142.474" gradientUnits="userSpaceOnUse"><stop offset="0" stop-color="#045296"/><stop offset="1" stop-color="#2776b0"/></linearGradient><clipPath id="a"><path fill="none" d="M0 0h299.991v211.575H0z"/></clipPath></defs><g fill="none" stroke-miterlimit="10" clip-path="url(#a)" font-family="none" font-size="none" font-weight="none" style="mix-blend-mode:normal" text-anchor="none"><path fill="#143677" d="M0 0h300v211.579H0z"/><path fill="url(#b)" d="M1.036 70.826c.174.207.177 1.205.19 1.522.036-.837-.054-4.92.11-5.105 1.709-1.924 1.402-3.034 1.353-5.603-.014-.747.214-1.673.354-2.516l.173-.114c.812.184 1.134.656 1.909.963 1.415-.208 1.4-1.386 2.475-2.106.912-.61 2.534-.926 3.463-1.38 1.312-.642 3.03-2.149 4.23-3.072 1.17-.903 2.221-.798 3.143-1.423.853-.578 2.25-2.756 3.182-3.398.83-.57 2.404-.861 3.282-1.288 1.036-.504 1.98-1.755 2.942-2.336 1.34-.81 3.153-1.522 4.473-2.29.757-.442 2.11-2.544 2.843-3.141.924-.754 2.476-.874 3.496-1.385 1.271-.637 2.036-1.723 3.296-2.512 1.445-.904 2.957-1.517 4.395-2.314.744-.412 1.922-2.466 2.726-3.032 1.095-.772 2.411-.822 3.606-1.49 1.244-.696 2.811-2.346 3.959-2.973.227-.124 1.91-.863 2.252-1.012 2.112-.92 2.786-3.053 4.747-4.262.63-.388 1.56-.284 2.262-.624 2.279-1.101 3.782-3.438 6.239-4.058.458-.116.864-.35 1.267-.586 1.16-.685 2.64-3.103 3.627-3.626 1.469-.778 3.797-1.351 5.244-2.442 1.408-1.06 1.878-2.849 2.744-4.184.574-.885 2.406-1.13 3.136-1.618-.038.025.364-.948.583-1.244 2.035-.58 5.622.191 7.855-.06 1.657-.187 2.533-.729 4.368-.783 5.739-.17 11.539-.141 17.282-.158l32.735-.023 77.306.005 47.018.025 14.529-.006c1.09-.004 7.875-.222 8.258.218l-.038.451c-.231 1.683-.118 6.68-.117 8.656l.024 17.24.045 44.793c0 6.966.143 14.44-.004 21.336l.092.033.009 38.08.005 12.159c.002 2.097.068 4.75-.036 6.81l.03.544c.017 4.195.094 8.655-.013 12.83l-.011.993c-1.784-.051-4.635.575-6.576.827-3.187.405-6.391.68-9.602.822-10.012.498-20.142-1.055-29.896-3.206-1.295-.285-4.696-.951-5.659-1.587-1.006.034-3.118-.607-4.142-.894a134 134 0 0 1-13.17-4.507c-4.385-1.738-8.63-3.559-13.142-4.977-6.04-1.9-11.424-2.383-17.663-2.758.006 1.767.109 5.465-.057 7.042-.249-2.441.5-7.45-.681-9.1-1.503-.925-12.699-.568-15.02-.57l-28.086-.016-12.06.007c-.344-2.19-2.14-5.967-3.946-7.532l-2.801-.006c-.865 1.289-2.223 5.356-3.446 7.54-7.692.004-15.711.127-23.376-.023-.89-1.043-2.261-2.325-3.353-3.132-3.153-2.333-6.55-3.913-10.14-5.251-8.807-3.282-15.411-.215-21.944 5.668-1.621 1.46-3.96 3.682-6.229 3.943-3.53.415-5.402-3.268-7.42-5.497-3.063-3.38-7.322-6.467-12.13-5.749-3.919.585-7.822 3.357-10.209 6.46l-.312.334c-5.41-1.821-11.744-3.083-17.164-4.691-2.21-.656-17.463-4.36-18.256-4.965-.619.972.064 11.149-.572 13.072-.157-3.876-.02-8.736-.019-12.668L1.01 109.3l-.005-25.086c-.002-4.226-.131-9.206.03-13.388"/><path fill="#2e8ac1" d="m297.998 93.871.092.033.009 38.08.005 12.159c.002 2.097.068 4.75-.036 6.81l.03.544c.017 4.195.094 8.655-.013 12.83l-.011.993c-1.784-.051-4.635.575-6.576.827-3.187.405-6.391.68-9.602.822-10.012.498-20.142-1.055-29.896-3.206-1.295-.285-4.696-.951-5.659-1.587-1.006.034-3.118-.607-4.142-.894a134 134 0 0 1-13.17-4.507c-4.385-1.738-8.63-3.559-13.142-4.977-6.04-1.9-11.424-2.383-17.663-2.758.006 1.767.109 5.465-.057 7.042-.249-2.441.5-7.45-.681-9.1-1.503-.925-12.699-.568-15.02-.57l-28.086-.016-12.06.007c-.344-2.19-2.14-5.967-3.946-7.532l37.076.012 12.01-.003c1.754 0 4.234-.081 5.945.005.867.009 3.21.131 3.838-.407 1.32-1.128.867-4.47.925-6.105.046-1.297.102-3.362-.558-4.415.765-.272 2.227-.209 3.085-.668 3.785-2.025 4.078-3.777 8.552-4.885 5.213-1.293 13.899 4.7 17.67 3.155 5.845-2.393 4.914-8.874 14.958-7.28 6.54 1.039 11.596 8.452 17.31 8.772 2.477.139 7.951-4.62 10.734-5.841 3.378-1.482 6.875-2.452 10.647-2.696 5.276-.342 13.059-1.064 17.386 2.498.135-9.015-.114-18.134.046-27.142"/><path fill="#1962a2" d="m297.998 93.871.092.033.009 38.08.005 12.159c.002 2.097.068 4.75-.036 6.81-.072-.559-.009-1.163-.129-1.724-.25-1.165-1.18-.826-1.99-1.074-1.419-.435-2.804-1.772-3.732-2.85a28.3 28.3 0 0 1-2.972-4.138c-3.67-6.308-6.883-17.094-16.504-14.34-5.716 1.635-5.826 9.82-8.442 14.226-.883 1.489-1.833 3.056-3.689 3.576-8.25 1.886-5.746-7.368-7.161-12.218-1.122-3.847-4.906-7.153-9.147-5.986-9.236 2.543-4.218 16.567-13.577 19.154-.556-.155-1.392-.439-1.783-.868-2.783-3.059-2.448-8.641-5.134-12.01-1.017-1.275-2.337-2.128-3.866-2.268-7.143-.655-8.074 6.298-12.084 9.987-.807.743-2.651-.096-3.755-.118-2.306-.048-4.63 2.588-6.771 2.306-1.393-.184-3.082-2.588-3.927-3.723.867.009 3.21.131 3.838-.407 1.32-1.128.867-4.47.925-6.105.046-1.297.102-3.362-.558-4.415.765-.272 2.227-.209 3.085-.668 3.785-2.025 4.078-3.777 8.552-4.885 5.213-1.293 13.899 4.7 17.67 3.155 5.845-2.393 4.914-8.874 14.958-7.28 6.54 1.039 11.596 8.452 17.31 8.772 2.477.139 7.951-4.62 10.734-5.841 3.378-1.482 6.875-2.452 10.647-2.696 5.276-.342 13.059-1.064 17.386 2.498.135-9.015-.114-18.134.046-27.142"/><path fill="url(#c)" d="M230.725 145.579c9.359-2.587 4.341-16.611 13.577-19.154 4.241-1.167 8.025 2.139 9.147 5.986 1.415 4.85-1.089 14.104 7.161 12.218 1.856-.52 2.806-2.087 3.689-3.576 2.616-4.406 2.726-12.59 8.442-14.227 9.62-2.753 12.833 8.033 16.504 14.34a28.3 28.3 0 0 0 2.972 4.138c.928 1.08 2.313 2.416 3.733 2.851.81.248 1.74-.09 1.989 1.074.12.561.057 1.165.129 1.723l.03.545c-2.033-.72-4.061-.769-6.048-1.82-5.953-3.15-11.726-13.334-16.324-15.332-.571-.249-1.233-.377-1.827-.117-1.447.636-2.277 7.135-2.907 8.958-1.254 3.623-4.008 7.264-7.533 8.934-9.443 4.475-13.026-12.903-16.706-14.252-1.352.004-2.939 2.384-3.775 3.402-2.827 3.437-5.638 5.003-9.776 6.374-8.647 2.866-16.767.052-25.306-1.594-4.495-.867-9.278-1.231-13.7-2.516-3.172-.89-6.312-3.88-9.623-4.07-3.266-.2-8.198 3.066-10.714 4.735-6.354 4.217-6.241.411-11.726-1.257-2.056-.626-5.839 1.993-7.753 3.454l-12.06.007c-.344-2.19-2.14-5.967-3.946-7.532l37.076.012 12.01-.003c1.754 0 4.234-.081 5.945.005.845 1.135 2.534 3.539 3.927 3.723 2.142.282 4.465-2.354 6.77-2.306 1.105.022 2.95.86 3.756.118 4.01-3.689 4.941-10.642 12.084-9.987 1.53.14 2.849.993 3.866 2.268 2.686 3.369 2.35 8.95 5.134 12.01.391.43 1.227.713 1.783.868"/><path fill="#81aec9" d="m135.573 138.865-20.773.019c-3.475.002-9.253.32-12.774-.444-.202-.044-.626-.717-.627-.953-.01-2.235-1.438-9.63 1.506-10.128 2.878-.1 6.176-.077 9.023-.073l21.22.013 42.074-.003h13.867c2.372 0 4.764-.013 7.136.016.537.006.946.34 1.385.646.66 1.053.604 3.117.558 4.415-.058 1.635.395 4.977-.925 6.105-.629.538-2.971.416-3.838.407-1.711-.086-4.191-.005-5.945-.005l-12.01.003-37.076-.012z"/><path fill="#fdfefe" d="M110.888 129.288c.186.079.414.123.445.269.247 1.164.243 6.885-.068 7.682-.093-.053-.283-.179-.3-.264-.264-1.43-.247-6.545-.077-7.687M125.336 132.527a1.007 1.007 0 1 1 .513 1.947 1.007 1.007 0 0 1-.513-1.947"/><path fill="#81aec9" d="M125.358 132.646c.408.145.395.126.657.465.133.485 0 .736-.147 1.223-.556-.21-.37-.068-.722-.516-.08-.543.002-.637.212-1.172"/><path fill="#fdfefe" d="M113.104 131.504c.922.552-.275 2.333 1.008 2.72l.25-.137c.293-.691.077-1.436.255-2.335l.217-.142.288.157c.044 1.18.232 2.493-1.256 2.69-1.263-.5-.954-1.876-.762-2.953M121.616 134.535c-.718-.084-1.479.017-1.762-.767.264-.384.65-.467 1.104-.647l.06-.243-.159-.177-.591.36-.153-.094.079-.282.313-.16c.53-.004.638-.023 1.095.23zM117.867 132.358c.769.666.216 1.297.787 1.87.26-.314.255-1.12.409-1.7l.227-.037.242.295c.014.582.1.978-.218 1.44-.483.313-.285.273-.82.293-.996-.506-.765-1.228-.627-2.161M115.949 132.436c.535.017.836-.015 1.126.458l-.116.113-.727-.1c.361.306.581.458.979.716.053.526.02.379-.316.94-.517-.056-.764-.028-1.16-.36l.04-.175.823.075.107-.146c-.255-.213-.723-.446-1.022-.599-.076-.513-.047-.357.266-.922M122.25 132.447l1.045.084c-.115.349-.472.354-.496.45-.152.586.143 1.188-.355 1.588-.23-.606-.187-1.454-.195-2.122M123.774 132.398c.148.11.195.203.313.356.132.761.036 1.148-.081 1.91-.536-.617-.398-1.525-.232-2.266M156.75 43.76c4.494 2.058 8.017 5.106 10.32 9.525a20.49 20.49 0 0 1 1.337 15.578A20.52 20.52 0 0 1 158.1 80.93a20.68 20.68 0 0 1-15.769 1.166 20.55 20.55 0 0 1-11.895-10.31 20.5 20.5 0 0 1-1.072-15.628c1.878-5.573 5.686-9.509 10.895-12.079-.724.718-3.868 3.447-4.08 4.09.331.08.361.024.53.235-.473.5-.983.99-1.472 1.474-5.468 5.428-6.73 14.74-3.02 21.431l.198-.012c.7.09 1.476.384 2.14.635 2.818 1.068 4.248 1.649 7.327 1.088 2.657-.717 3.884-1.526 6.82-1.983l.136-.26c3.905-.137 3.713 1.907 7.25 2.359l.51.201c2.336-.429 4.805-1.762 6.938-.185l.06.192.106-.07.446.176c1.45-2.22 2.366-3.993 2.97-6.663a18.49 18.49 0 0 0-3.151-15.075c-.702-.953-2.719-2.99-2.98-3.406.408-.113.296.002.501-.254-1.274-1.322-3.293-2.887-4.737-4.292"/><path fill="#1962a2" d="M135.12 75.158c3.17 1.437 5.188 1.433 8.61 1.16.662-.052 1.617-.207 2.223-.02l.067.192c-.897.728-7.499.767-8.947.74-.777-.664-1.337-1.155-2.059-1.892zM161.563 76.046l.17.153c-3.003 2.987-5.693 3.793-9.562 4.932a47 47 0 0 1-1.296-.194c-1.133-.262-3.276-.296-4.206-.796l.076-.164c.554-.115 3.785.226 4.99.172 3.679-.163 7.27-1.372 9.828-4.103"/><path fill="#1962a2" d="m163.535 73.152.06.192.106-.07.446.176c-.881 1.178-1.37 1.7-2.414 2.75l-.17-.154c.3-.36.333-.382.477-.817-2.728-.247-5.937-.094-8.55-1.1 3.297-.185 7.239 1.118 10.045-.977"/><path fill="#c2c0c1" d="M152.17 81.131c-4.323.621-9.674.11-13.294-2.53l.023-.127c.819.159 2.02.86 2.825 1.235 1.92.897 7.166 2.169 9.15 1.228q.646.106 1.297.194"/><path fill="#656d8a" d="M148.837 70.776c3.905-.136 3.713 1.908 7.25 2.36l.51.201c-2.396.296-3.8-1.57-6.007-2.185-.423-.117-1.422-.113-1.89-.115z"/><path fill="#c2c0c1" d="m132.216 71.31.198-.013c.592 1.054 1.84 3.035 2.705 3.86l-.105.18c-.951-.688-2.43-2.887-2.798-4.028"/><path fill="#fdfefe" d="m148.831 55.901 13 7.435c-1.289 2.381-4.16 7.94-5.745 9.8-3.536-.452-3.344-2.496-7.25-2.36l-.135.26c-2.936.458-4.163 1.267-6.82 1.984l-.353-.16c-1.098-.414-4.88-7.99-5.624-9.533z"/><path fill="#1962a2" d="M148.611 57.16c.056.616.161 1.231.254 1.842l-9.29 5.343c2.988-.715 6.252-1.665 9.243-2.468-.013 2.771-.116 6.181.019 8.9l-.136.26c-2.936.457-4.163 1.266-6.82 1.983l-.353-.16c.479-.142.332 0 .528-.358-.7-1.642-3.874-6.849-4.928-8.695 3.794-2.055 7.65-4.532 11.483-6.647M152.933 62.887c1.147-.075 3.596-.16 4.166 1.104l-.09.215c-.737.27-3.589-1.193-5.083-.002l-.014.337c.366.198 1.02-.007 1.529-.083.388.231.275.256.435.868q-.947.156-1.885.355c.309.744 1.289 1.873 1.273 2.224l-.387.26c-1.523-.082-1.932-3.352-1.988-4.569.904-.452 1.046-.502 2.044-.709"/><path fill="#1962a2" d="M154.109 64.45c5.007.13 1.82 4.013-.072 4.642-.52-.122-.37-.01-.67-.375l.166-.26c.652-.434 1.185-.892 1.787-1.391-.987-.047-1.759.153-2.305-.704l.077-.232c.832-.272 2.215.316 2.704-.193-.512-.85-1.325.153-1.687-1.488"/><path fill="#579dc4" d="M152.69 69.495c.75.13 1.384.044 2.184.17l.055.29c-.52.057-1.579.025-2.092-.099z"/><path fill="#fdfefe" d="m147.12 40.508 4.663-.04.096 5.818 3.922 2.319.098 4.61h3.15q-.1 3.306-.242 6.612c-2.84-1.537-6.05-3.53-8.871-5.184l-1.098-.659-10.237 5.859.055-6.614 2.943.01.066-4.664 4.105-2.3c-.028-1.51-.15-4.162-.014-5.58.321-.217.945-.175 1.364-.187"/><path fill="#1962a2" d="M149.48 41.663c.535-.02.76-.063 1.279.097.239.593.174 4.454.176 5.373l4.114 2.326c.053 1.543.041 3.2.059 4.753a189 189 0 0 0 2.996.191l-.04 4.132-8.426-4.999c-.108-3.885-.102-7.974-.158-11.873"/><path fill="#fdfefe" d="M191.147 89.427c.784.01 2.403-.213 2.993.176l.062.472c.017.425.016.629-.027 1.051-.857.986-1.977 4.16-2.437 5.457l-2.647-.017a72 72 0 0 0-1.484-3.678l-1.318 3.693-2.639-.016c-.489-1.246-1.409-3.787-1.989-4.877l-.574-.155c-.142-.501-.177-1.692.161-2.09l4.052-.006c.19 2.876-1.002 1.545.116 4.498.594-1.41 1.086-3.036 1.564-4.505l2.465.015 1.439 4.567c1.078-2.82.19-1.883.263-4.585M104.922 85.997l9.073.008-.024 3.495c-.617-.002-2.002.1-2.402-.149l-.058-.608c-.787-1.073-2.544.038-1.923 1.337.405.277 1.024.183 1.557.174-.005.598.083 1.61-.2 2.038l-.337-.062-.664.073c-.372.24-.435.526-.618.95.077.557-.014.35.343.783.339.026.495.045.829.108.195.504.105 1.816.093 2.43l-5.57-.007c-.074-2.281-.12-1.711.82-2.875.211-.261.105-4.843-.056-5.131a5 5 0 0 1-.75-.097c-.213-.467-.12-1.873-.113-2.467M156.403 86.006l9.013-.003-.004 3.503c-.648.007-1.28.02-1.928-.02-.837-.049-.169-.474-.665-.928-.763-.065-.96-.09-1.729.024-.048.081-.115.176-.117.276-.016 1.268-.015 1.277 1.219 1.506.504.478.578 1.433.192 1.95l-.36-.086c-1.215.09-1.379.753-.948 1.81q.434.057.867.12c.184.49.094 1.817.079 2.416h-5.568c-.034-1.222-.349-2.008.798-2.602.3-.759.252-4.408.025-5.157-1.192-.943-.915-1.352-.874-2.81"/><path fill="#fdfefe" d="M175.636 89.139c6.172.162 6.671 6.272 1.28 7.434-6.815.189-7.086-6.668-1.28-7.434"/><path fill="#1962a2" d="M175.771 91.078c2.017.207 1.863 2.484.61 3.61-1.968-.247-1.81-2.496-.61-3.61"/><path fill="#fdfefe" d="M124.058 89.135c3.032.043 3.99 1.448 4.363 4.224l-2.513-.04c-.82-.009-1.968-.126-2.537.432.44 2.519 1.598.864 2.886.67.293-.043 1.492.194 1.855.26a.6.6 0 0 1-.121.437c-1.288 1.75-4.386 1.93-6.079.867a3.7 3.7 0 0 1-1.68-2.422c-.533-2.687 1.41-4.13 3.826-4.428"/><path fill="#1962a2" d="M123.927 90.784c.864.067 1.326.408 1.386 1.275l-.224.255c-.631.025-1.221.165-1.665-.328.018-.543.209-.74.503-1.202"/><path fill="#fdfefe" d="M133.22 89.138c3.173-.051 4.166 1.308 4.614 4.229-1.042-.019-4.404-.27-5.05.326 0 .275.137.84.288 1.014.88 1.022 1.418-.027 2.265-.266.359-.1 1.413.094 1.777.154.219.052.193.066.393.19l-.02.27c-1.75 2.243-7.34 2.05-7.821-1.137-.42-2.78.92-4.337 3.553-4.78"/><path fill="#1962a2" d="M133.31 90.787c.821.074 1.394.405 1.398 1.292l-.244.24c-.653.02-1.185.13-1.646-.293-.02-.508.223-.789.492-1.24"/><path fill="#fdfefe" d="M114.473 85.975q2.047.046 4.093.03c.002 2.467-.055 5.086.078 7.536.067 1.25.527 1.247.5 3.034l-4.595-.008c-.048-1.09-.283-1.707.609-2.423.126-.818.272-5.22.012-5.797-.184-.076-.52-.194-.664-.303l-.283.165c-.222-.733-.123-1.347-.015-2.095z"/><path fill="#1962a2" d="m114.506 88.044-.283.165c-.222-.733-.123-1.347-.015-2.095l.265-.139c.065.83.086 1.243.033 2.069"/><path fill="#fdfefe" d="m165.995 86.001 4.018.003c.04 2.483-.207 5.883.237 8.375.113.637.71 1.273.229 2.131l-.374.064-4.094-.005c-.022-.557-.109-1.357.16-1.862.886-1.672.53-3.956.541-5.798.005-.513-.246-.651-.564-.912-.25-.558-.167-1.35-.153-1.996M147.407 89.133c1.47.027 2.186.342 4.29.293l.002 1.999c-.302.004-.605-.002-.905.001-1.337.012-2.02-1.472-3.382-.47l.032.188c1.674.96 6.076.673 4.418 4.252-.349.752-1.175.967-1.907 1.185-1.615-.072-3.082-.053-4.694-.01l.012-2.239c.248-.006 1.25-.044 1.438.022.797.281 2.309 1.42 2.996.395-.69-1.037-4.217-.865-4.55-2.648-.363-1.947.502-2.6 2.25-2.968M142.384 86.425l.21.039c.509 1.433-.844 1.946 1.128 3.249.295.538.335 1.257.206 1.847-.51.116-.584.114-1.02.382-.384.62-.425 1.795.031 2.348.413.011.54.002.95-.054.152.25.08 1.524.074 1.891-.896.29-1.186.362-2.117.486-2.994-.193-2.388-2.352-2.62-4.67-.58-.608-.967-1.034-.793-1.905.19-.948.337-.33.91-.794l.005-.888c.371-.514 2.343-1.534 3.036-1.931M147.83 32.115c2.145-.224 5.705.579 6.972 3.127.118.238-.01.417-.161.615-.77 0-2.119-1.586-2.911-1.983-.593-.296-1.012-.419-1.648-.607-4.44-.372-3.786.922-6.721 2.674-.42-.2-.261-.053-.495-.452.25-1.609 3.522-3.052 4.965-3.374"/><path fill="#fdfefe" d="M148.334 34.04c1.82-.034 3.465.464 4.665 1.918.244.297.48.49.445.863-.95-.035-2.027-1.441-3.807-1.863l-.167-.039c-2.62-.2-3.225 1.25-5.082 2.018l-.086-.15c-.008-1.402 2.814-2.514 4.032-2.747"/><path fill="#1962a2" d="M137.938 100.833c.619-.264.683-.37 1.216-.212l.218.045.224-.077c.982.256 1.288 1.292.678 1.923l-.369.028-.684.003-.48.156-.573-.066c-.564.003-.85.054-1.322-.273-.476-.7-.445-1.206.32-1.687.532-.036.342-.094.772.16"/><path fill="#fdfefe" d="m139.372 100.666.224-.077c.982.256 1.288 1.292.678 1.923l-.369.028-.684.003z"/><path fill="#1962a2" d="m139.372 100.666.224-.077c.378.761.283 1.112.309 1.951l-.684.003z"/><path fill="#fdfefe" d="M138.168 102.633c-.564.003-.85.054-1.322-.273-.476-.7-.445-1.206.32-1.687.532-.036.342-.094.772.16l.055.284c-.53-.102-.436-.172-.826.017-.16.458-.107.554-.018 1.054l.205.197c.292-.134.453-.205.767-.306.087.282.103.27.047.554M139.154 100.62l.218.046-.15 1.877-.48.156c-.024-.652-.1-1.29.077-1.905zM146.892 100.65c.552-.008.779-.017 1.32.08.637.888.465 2.017-.412 2.661-.48.124-.64.035-1.14-.092.138-.316.035-.184.339-.39.278.171.336.247.66.258l.176-.336c-.585-.265-.943-.403-1.229-.96-.06-.56.044-.702.286-1.22"/><path fill="#1962a2" d="M147.171 100.838c.402.078.393.11.682.384.16.514.076.618-.1 1.161-.415-.037-.227.033-.57-.253-.179-.49-.088-.772-.012-1.292"/><path fill="#fdfefe" d="M147.968 35.913c1.115-.1 3.15.303 3.476 1.523-.363.074-1.38-.71-2.11-1.035-1.747-.113-2.268.928-3.451.957.682-.777 1.15-1.07 2.085-1.445M144.765 100.749a1.007 1.007 0 1 1 .984 1.756 1.007 1.007 0 0 1-.984-1.756"/><path fill="#1962a2" d="M144.959 100.864c.583.12.53.132.796.52.017.527-.048.61-.31 1.076-.368-.15-.393-.212-.64-.51-.108-.523-.059-.566.154-1.086"/><path fill="#fdfefe" d="M142.657 102.261a1.006 1.006 0 1 1-1.556-1.274 1.006 1.006 0 0 1 1.556 1.274"/><path fill="#1962a2" d="M141.601 100.852c.607.216.444.063.77.534.03.495-.07.589-.318 1.048-.345-.125-.354-.181-.596-.453-.126-.495-.032-.618.144-1.13"/><path fill="#fdfefe" d="M160.983 100.639c2.425-.019 1.062.28 2.218 1.02a19 19 0 0 1 .547-1.039l.171.008.085.216c-.248.803-.391 1.124-.762 1.884-.745-.387-.492-1.314-1.17-1.92l-.284.064c-.435.527-.145.973-.498 1.71l-.211-.037c-.145-.405-.097-1.43-.096-1.906M152.18 100.692c.471-.055.564-.055 1.034.01.419.28.447.337.652.799.001 1.222-.88 1.104-1.746 1.122-.134-.592-.14-.684.158-1.15.312-.114.63-.174.804-.433-.432-.346-.163.191-.847.07zM148.4 38.015a.892.892 0 1 1 .662 1.657.892.892 0 0 1-.662-1.657M156.8 99.777c.362-.013 1.103-.015 1.306.313-.479.067-.6.049-.982.312.104.378.72.698 1.13 1.059.08.607-.007.564-.246 1.168-.574 0-.98.065-1.383-.361.431-.005.627-.022 1.054-.09l.086-.189c-.445-.437-.709-.698-1.103-1.189-.107-.591-.083-.392.138-1.023M167.955 100.594c.436.025 1.03.124 1.32.475l-.049.284c-.351.262-.696.515-1.084.72.275.3.152.208.683.244l.167-.213.127.074-.162.292c-.434.2-.459.182-.948.089-.791-.567-.538-1.243-.054-1.965M159.185 100.582c.265.036.56.091.826.136.378.28.397.287.577.708-.208.331-.716.317-1.261.47l.006.259.209.168.19-.157.522-.137.09.16-.222.327c-.492.243-.289.23-.773.113-.791-.717-.687-1.213-.164-2.047M143.324 101.088c-.004-.486-.063-.838.165-1.254.576.393.414 1.902.308 2.506-.221.251-.088.176-.405.245-.243-.123-.484-.219-.735-.324.233-.284.293-.673.155-1.013z"/><path fill="#1962a2" d="m143.324 101.088.068 1.497c-.243-.123-.484-.219-.735-.324.233-.284.293-.673.155-1.013z"/><path fill="#fdfefe" d="M132.188 99.838c.446-.035 1.493-.157 1.806.06-.477.957-.448 1.18-.38 2.265-.011.142-.069.245-.123.388l-.256.078c-.33-.668.058-1.665-.255-2.48zM165.423 101.205c.746-.694.681-.637 1.666-.389-.507.162-.722.17-1.047.612-.099.432-.085.446.1.865.408.093.357.023.833-.161-.137.425-.01.255-.43.496-.504-.006-.609-.07-1.03-.363zM150.359 100.632c.535.017.892-.033 1.219.297l-.11.17c-.384-.049-.662-.135-.998.033-.146.406.015.896.293 1.208l.179-.102c.373-.1.442-.213.757-.023-.357.4-.712.491-1.213.437-.693-.563-.549-1.345-.127-2.02"/><path fill="#fdfefe" d="m165.048 102.417-.178.2c-.441-.4-.446-1.53-.01-1.96l.322.113.241.435.091 1.06z"/><path fill="#1962a2" d="m165.182 100.77.241.435.091 1.06-.466.152c.01-.559.075-1.092.134-1.647"/><path fill="#fdfefe" d="m154.29 99.687.209.078c.458.581.257 2.085.21 2.877l-.216-.004c-.437-.495-.235-2.197-.202-2.951M149.073 100.552l.328.282c.193.68.139 1.274-.164 1.911-.472-.55-.255-1.519-.164-2.193"/><path fill="url(#d)" d="M1.022 146.574c.636-1.923-.046-12.1.572-13.072.793.605 16.045 4.309 18.256 4.965 5.42 1.608 11.754 2.87 17.164 4.691l.312-.335c2.387-3.102 6.29-5.874 10.209-6.459 4.808-.718 9.067 2.37 12.13 5.75 2.018 2.228 3.89 5.91 7.42 5.496 2.269-.26 4.608-2.483 6.229-3.943 6.533-5.883 13.137-8.95 21.944-5.668 3.59 1.338 6.987 2.918 10.14 5.25 1.092.808 2.464 2.09 3.353 3.133 7.665.15 15.684.027 23.376.023 1.223-2.185 2.58-6.251 3.446-7.54l2.801.006c1.806 1.565 3.602 5.342 3.946 7.532l12.06-.007 28.085.016c2.322.002 13.518-.355 15.02.57 1.182 1.65.433 6.659.682 9.1.166-1.577.063-5.275.057-7.042 6.239.375 11.622.859 17.663 2.758 4.512 1.418 8.757 3.24 13.141 4.977 4.31 1.73 8.706 3.235 13.17 4.507 1.025.287 3.137.928 4.143.894.963.636 4.364 1.302 5.659 1.587 9.754 2.15 19.884 3.704 29.896 3.206 3.211-.143 6.415-.417 9.602-.822 1.941-.252 4.792-.878 6.576-.827.032 10.578-.09 21.327.047 31.878-13.952-.074-29.328.863-42.932-2.321-19.64-4.597-36.684-17.395-57.39-18.59-6.564-.379-12.993-.074-19.516.82-1.032.142-2.35.332-3.378.34h-.14c.017-1.349.184-2.98-1.648-3.032-3.695-.106-7.404-.051-11.102-.047l-22.324.01c-4.081 0-9.304.14-13.301-.16-1.52-.51-4.878-.947-6.624-1.179-10.717-1.423-21.804-1.833-32.557-.6-5.732.659-11.403 2.276-17.13 2.839-8.81.864-17.43.683-26.108 2.806-7.217 1.764-13.758 4.49-20.395 7.782-4.814 2.387-9.449 5.093-14.286 7.395-2.905 1.383-6.006 1.5-8.248 3.695-.177-2.072-.043-6.746-.044-8.936l-.01-18.245-.024-15.341c-.005-1.952-.13-6.105.059-7.86"/><path fill="#81aec9" d="m135.573 138.865 2.801.006c1.806 1.565 3.602 5.342 3.946 7.532l12.06-.007 28.085.016c2.322.002 13.518-.355 15.02.57 1.182 1.65.433 6.659.682 9.1-.192.697-.423 1.143-.952 1.634-2.659.401-6.617.265-9.437.266l-14.913.002-51.31.02-12.39.01c-2.113.005-4.274.027-6.387-.013-.32-.005-.334-.093-.57-.213-.501-.255-1.033-1.577-1.026-2.147.025-1.933-.499-7.275.673-8.72.67-.827 5.637-.552 6.896-.54 7.665.15 15.684.028 23.376.024 1.223-2.184 2.58-6.251 3.446-7.54"/><path fill="#2e8ac1" d="m135.573 138.865 2.801.006c1.806 1.565 3.602 5.342 3.946 7.532l-10.193.002c1.223-2.184 2.58-6.251 3.446-7.54"/><path fill="#fdfefe" d="M110.99 148.634c.237.195.42.27.437.737.086 2.248.124 4.63-.036 6.872l-.286.385c-.465-.659-.421-7.038-.116-7.994M122.208 151.562c.502-.08.561-.103 1.055-.034.427.256.462.303.674.755.098 1.214-.863 1.125-1.673 1.14l-.166-.664c.215-.57.368-.506 1.027-.834l-.164-.185c-.293.157-.271.159-.6.182zM113.426 150.618c.774-.01.817-.104 1.358.267l-.014.167c-.392-.034-.762-.11-1.118.04.206.483.777.694 1.255 1.204.109.482-.005.624-.198 1.11-.51.027-1.244.143-1.473-.42.52.012.891.113 1.282-.111-.217-.463-.793-.578-1.26-1.21-.095-.494-.031-.557.168-1.047M120.165 150.453c.292.341.2.357.264.904l.2.158c.383-.02.467-.048.826.108.347.47.374 1.413-.114 1.759-.316-.358-.27-.75-.305-1.253l-.073-.34-.226-.101c-.638.848-.001 1.066-.471 1.729l-.21-.119c-.199-.648-.178-2.25.11-2.845M115.665 151.484l.925.045c.252.176.669.477.613.82-.23.241-.854.284-1.22.345l-.122.242.15.092.304-.112c.21-.033.263-.015.477-.002l-.045.27c-.5.17-.534.15-1.072.069-.701-.553-.357-1.052-.01-1.769M118.516 151.368c.352.094.329.094.618.321.278.542.154 1.22.107 1.842l-.29-.116c-.22-.296-.266-1.491-.435-2.047M117.624 151.357l.447.158c.165.362.008 1.36-.025 1.862-.245.06-.119.057-.378-.058-.178-.594-.079-1.325-.044-1.962"/><path fill="#1962a2" d="m37.014 143.158.312-.335c.857.624 8.965 2.7 10.682 3.202l36.376 10.357c6.286 1.748 12.458 3.539 18.894 4.781 1.413.273 3.05.771 4.39.951.862-.082 1.891.352 2.845.575.18.197.3.656.577 1.059.015.467.077.334-.14.681-.757.044-.212-.227-.598-.189-.659.065-.523.386-1.14.204-.2-.283-.192-.966-.116-1.297-.568.405-.209 1.045-.85 1.476-.361-.274-.535-.85-.725-1.295-.226.578.05.587-.277.829-.273-.43-.394-1.303-.162-1.754.147-.06.43-.185.57-.223-.847.117-1.235.044-1.26 1.15-.014.67.081 1.2-.095 1.857-.636.384-2.45.243-3.306.217-2.084.08-6.495-.816-8.75-1.206a473 473 0 0 1-24.964-5.17c-9.078-2.09-18.236-4.4-26.952-7.705-3.434-1.303-8.516-3.682-5.311-8.165"/><path fill="#9cc8e8" d="M102.998 162.217c1.03-.03 2.187-.009 3.227-.01-.005 1.05.008 1.923.072 2.98-.636.384-2.45.243-3.306.217z"/><path fill="#81aec9" d="M103.419 162.62c.751-.037 1.646-.013 2.41-.012l.043 2.356c-.836.063-1.69.076-2.529.1 0-.847.03-1.597.076-2.444"/><path fill="#2e8ac1" d="m111.78 163.034.23-.18c.297.047.437.052.722.157.355-.454.174-.314.83-.464l.277.118.114.295c.559.051 2.102-.305 2.75-.02.382.17-.1.486.577.565.333-.217.33-.242.564-.544.812-.21 2.752-.064 3.703-.032.804.485-.002.265.837.793l.225-.08c.366-.928 1.177-1.695 2.194-1.195.154.265.324.649.581.78l-.25.956-.224-.066c-.2.48-.472.494-.914.561-.59-.18-.647-.26-1.057-.73-.607-.178-.682-.162-1.282.05-.336-.14-.395-.21-.664-.439l-.212.2c.041.292.075.464.078.763-.523-.049-.428-.47-.911-.07l-.217.011c-.059-.589.042-.514-.273-.885l.05-.041-.016.006c-.215.249-.355.752-.479 1.089l-.18-.091a20 20 0 0 0-.136-.918l-.26-.087c-.455.395-.038.696-.446 1.065l-.346-.306c-.566-.124-.75-.157-1.2-.524l-.263.066-.15.586-.176.062-.365-.77c-.092.665.022.525-.345.985-1.151.151-.757-.416-1.56-.085-.273-.095-.28-.155-.497-.37-.21.167-.222.15-.324.392-.057-.01-.207-.126-.265-.165-.032-.507.048-.723-.375-1.002-.502.4-.154.486-.556 1.135-.386-.576-.25-1.127.212-1.57"/><path fill="#c4dfef" d="M117.645 164.295c.063-.296.075-.764.346-.896.778-.38 1.597-.515 2.05.329l-.093.725-.217.01c-.059-.589.042-.514-.273-.885l.05-.041-.016.006c-.215.249-.355.752-.479 1.089l-.18-.091a20 20 0 0 0-.136-.917l-.26-.088c-.455.395-.038.696-.446 1.065zM122.94 163.949c.145-.841.412-1.464 1.368-1.342.362.243.375.22.542.606-.798-.21-.433-.297-1.176-.17-.365.403-.275.204-.33.752.28.475.113.327.605.579.41-.077.433-.1.8-.312l.161.055c-.2.48-.472.494-.914.561-.59-.18-.647-.26-1.057-.73M111.78 163.034c.6.204.605.106.991.554.061.48.06.57-.006 1.05-.057-.01-.207-.127-.265-.166-.032-.507.048-.723-.375-1.002-.502.4-.154.486-.556 1.135-.386-.576-.25-1.127.212-1.57M113.089 164.245c.02-.676-.084-.794.23-1.316.388.44.284 1.084.266 1.686-.272-.095-.278-.155-.496-.37"/><path fill="#fdfefe" d="M126.571 163.125c.725-.154.854-.132 1.575-.055.232.556.294.665.299 1.263l-.17.3-.167-.048c-.093-.496-.052-.806-.369-1.073-.58.339-.228.56-.619 1.057l-.378-.055c-.892.238-.943.213-1.608-.33l.25-.958z"/><path fill="#c4dfef" d="m125.384 163.226 1.187-.1c.078.486.156.892.17 1.388-.891.238-.942.213-1.607-.33z"/><path fill="#2e8ac1" d="M126.571 163.125c.725-.154.854-.132 1.575-.055-.576.127-.728.061-1.106.432-.05.494-.019.57.08 1.067l-.378-.055c-.015-.496-.093-.902-.17-1.389"/><path fill="#1962a2" d="M132.466 164.841c-.471-.457-.566-1.345-.37-1.949l.24-.04.282.374c.478.106.62.06 1.099-.054.39.16.608.221.786.626-.187.675-.815.977-1.482 1.01z"/><path fill="#fdfefe" d="M132.466 164.841c-.471-.457-.566-1.345-.37-1.949l.24-.04.282.374c-.3.884-.068.912-.152 1.615"/><path fill="#9cc8e8" d="M173.728 162.627c.572-.013 1.08-.073 1.612.114.01.37-.023.756-.047 1.129.19.297.285.382.274.737l-.206-.059-.504-.574c-.667-.17-.258.1-1.049.435-.138-.6-.09-1.166-.08-1.782M136.11 164.334l-.22.252c-.803.133-.87.227-1.327-.4-.051-.548-.092-.332.145-.822.361-.132.488-.155.868-.226.07-.322.052-.34.228-.612.293.368.262.503.312.996l.332-.052a.76.76 0 0 0-.088.79z"/><path fill="#2e8ac1" d="M136.448 163.47a.76.76 0 0 0-.088.79l-.25.074.006-.812z"/><path fill="#c4dfef" d="M181.027 163.223c.767.02.674-.096 1.235.276.243.514.231.299.09.799-.344.358-.411.337-.931.42l-.088.02-.041.184-.202.11c-.198-.384-.082-1.299-.063-1.809"/><path fill="#81aec9" d="M176.568 163.155a.792.792 0 1 1 .142 1.576.792.792 0 0 1-.142-1.576"/><path fill="#c4dfef" d="M186.954 164.687c-.7-.309-1.213.163-1.518-.508.302-.402.451-.132 1.033-.49-.56-.416-.19.145-.913-.162.336-.391.963-.279 1.392-.153l.177-.05c.094.591.123.707.015 1.29z"/><path fill="#1962a2" d="m186.948 163.374.177-.05c.094.591.123.707.015 1.29l-.186.073c-.038-.39-.014-.911-.006-1.313"/><path fill="#9cc8e8" d="M189.275 162.624c.56-.009.843-.051 1.36.19l.026.238c-.49-.073-.584-.059-1.08.01v.19c.408.366.711.209 1.262.625-.063.522-.093.403-.504.885-.498-.047-.813-.056-1.122-.448l-.088.017.028.113-.046-.117c.437-.04 1.011-.031 1.345-.274-.385-.405-.624-.327-1.233-.583-.167-.438-.119-.29.052-.846"/><path fill="#c4dfef" d="M136.448 163.47a.756.756 0 1 1 1.19.93.756.756 0 0 1-1.19-.93M194.804 162.593l.243.503.765.234c.316.421.351.783.139 1.252-.343-.21-.245-.19-.425-.668l.053-.345-.257-.011a14 14 0 0 1-.517.822l-.148-.052c-.007-.77-.012-.98.147-1.735M192.895 163.207c.49.008.73-.023 1.182.163.258.445.221.55.226 1.087l-.167.145-.005-.312c-.167-.436-.167-.565-.54-.791-.346.253-.355.48-.542.922l-.151-.16.13-.03.024-.212-.223-.16c.038-.228.048-.422.066-.652"/><path fill="#fdfefe" d="m180.387 163.178.152.14c.164.414.161.389.126.833-.34.43-.158.303-.694.469-.633-.151-.402-.018-.857-.55.085-.3.074-.411.316-.597l.529.937.17-.09c.152-.321.2-.781.258-1.142"/><path fill="#81aec9" d="M1.042 196.956c2.242-2.195 5.343-2.312 8.248-3.695 4.837-2.302 9.472-5.008 14.286-7.395 6.637-3.291 13.178-6.018 20.395-7.782 8.679-2.123 17.298-1.942 26.108-2.806 5.727-.563 11.398-2.18 17.13-2.838 10.753-1.234 21.84-.824 32.557.599 1.746.232 5.103.67 6.624 1.178 3.997.3 9.22.161 13.3.161l22.325-.01c3.698-.004 7.407-.059 11.102.047 1.832.051 1.665 1.683 1.648 3.033h.14c1.027-.009 2.345-.2 3.378-.341 6.523-.894 12.952-1.2 19.516-.82 20.706 1.195 37.75 13.993 57.39 18.59 13.604 3.184 28.98 2.247 42.932 2.32 0 3.703-.068 7.635.008 11.32a31 31 0 0 0-.054 2.483l-42.8-.028-12.51.015c-1.634.003-4.67.105-6.159-.02-4.033.112-8.518.021-12.6.023l-23.882.003-68.543.032c-2.6-.126-5.65-.059-8.277-.059l-17.063.08-47.757-.022-37.378-.043-12.784-.016c-2.124.006-5.209-.053-7.238.12.024-1.109.096-2.176.11-3.32l-.09-1.021c-.184-2.786-.06-6.922-.062-9.788"/><path fill="#2e8ac1" d="M1.042 196.956c2.242-2.195 5.343-2.312 8.248-3.695 4.837-2.302 9.472-5.008 14.286-7.395 6.637-3.291 13.178-6.018 20.395-7.782 8.679-2.123 17.298-1.942 26.108-2.806 5.727-.563 11.398-2.18 17.13-2.838 10.753-1.234 21.84-.824 32.557.599 1.746.232 5.103.67 6.624 1.178 3.997.3 9.22.161 13.3.161l22.325-.01c3.698-.004 7.407-.059 11.102.047 1.832.051 1.665 1.683 1.648 3.033h.14c1.027-.009 2.345-.2 3.378-.341 6.523-.894 12.952-1.2 19.516-.82 20.706 1.195 37.75 13.993 57.39 18.59 13.604 3.184 28.98 2.247 42.932 2.32 0 3.703-.068 7.635.008 11.32-1.797-.002-4.287.256-6.148.354q-5.176.264-10.36.208c-7.203-.067-14.419-1.235-21.59-1.664-6.877-.41-14.08.192-20.935-.622-2.533-.298-5.1-1.02-7.321-2.297-5.149-2.48-7.313-11.63-11.672-14.188-7.293-4.28-21.34-.258-28.307 2.83-8.201 3.635-14.855 7.932-23.852 8.515-10.6.69-18.307-5.724-27.1-10.505-5.446-2.945-10.535-5.143-16.5-6.688-13.137-3.4-25.671-1.349-38.901-.745-7.247.33-14.299-.283-21.65 1.072a66.5 66.5 0 0 0-18.664 6.578c-3.61 1.893-6.714 3.988-10.072 6.29-4.753 3.26-9.597 7.707-15.144 9.4-4.044 1.233-8.96 1.349-13.117.662-1.975-.327-3.64-1.38-5.693-.973-.183-2.786-.059-6.922-.06-9.788"/><path fill="#9cc8e8" d="M126.39 174.217c3.997.3 9.22.161 13.3.161l22.325-.01c3.698-.004 7.407-.059 11.102.047 1.832.051 1.665 1.683 1.648 3.033.007 1.18.208 3.122-.506 3.987-1.72.444-5.557.32-7.46.32l-9.65-.004c-6.765-.003-23.972.211-31.791-.218-.942-.051-.852-3.28-.792-4.25.123-1.985-.398-2.453 1.824-3.066"/><path fill="#1962a2" d="M125.24 174.83c.86-.16 3.523-.08 4.573-.08l9.175.006c3.343.002 34.218-.154 34.927.18.768.998.785 5.34.101 6.322-1.059.206-4.906.133-6.26.133l-12.568-.003-19.346.004c-2.578 0-7.976.144-10.374-.164-.794-.565-.683-5.682-.227-6.398"/><path fill="#fdfefe" d="M146.101 175.939a1.682 1.682 0 1 1 .986 3.215 1.682 1.682 0 0 1-.986-3.215"/><path fill="#1962a2" d="M146.176 176.07c1.902.113 2.072 1.92.675 2.98-1.766-.292-1.764-1.85-.675-2.98"/><path fill="#fdfefe" d="M156.39 178.47c-.018-.581-.126-1.96.228-2.4.482.559.336 2.713.12 3.376-.701-.528-1.65-2.076-2.191-2.867.022.784.116 1.703-.152 2.42l-.154-.133c-.27-1.147-.167-1.978-.07-3.153.786.343 1.684 1.944 2.219 2.756M149.79 175.861c.693-.032 2.085-.114 2.02.865-.374-.19-1.148-.603-1.545-.57-1.67.134-1.116 3.271.514 2.833.567-.154.676-.498.93-.962-.29-.07-.798-.169-1.035-.305.537-.145 1.5-.318 1.572.432-1.276 2.818-5.315.013-2.457-2.293M142.36 176.096l.188-.22.18.096c.163.715.118 2.323.03 3.06.535-.101 1.057-.19 1.57-.01l-.062.156c-.604.286-1.27.175-1.951.138-.021-1.077-.07-2.15.044-3.22"/><path fill="#9cc8e8" d="M142.36 176.096c.025.616-.003 2.628.156 3.016.218-.038.15.014.242-.08.535-.101 1.057-.19 1.57-.01l-.062.156c-.604.286-1.27.175-1.951.138-.021-1.077-.07-2.15.044-3.22"/><path fill="#fdfefe" d="M152.908 175.74c.092.068.225.227.31.319.169 1.131.164 2.165-.058 3.292-.137-.07-.182-.137-.3-.249-.128-.96-.091-2.404.048-3.361"/><path fill="#579dc4" d="M1.103 206.744c2.052-.408 3.718.646 5.693.973 4.158.687 9.073.571 13.117-.663 5.547-1.692 10.39-6.139 15.144-9.4 3.358-2.301 6.461-4.396 10.072-6.29a66.5 66.5 0 0 1 18.663-6.577c7.352-1.355 14.404-.743 21.65-1.072 13.23-.604 25.765-2.655 38.903.745 5.964 1.545 11.053 3.743 16.5 6.688 8.792 4.78 16.498 11.194 27.1 10.505 8.996-.583 15.65-4.88 23.851-8.515 6.967-3.088 21.014-7.11 28.307-2.83 4.36 2.559 6.523 11.707 11.672 14.188 2.22 1.278 4.788 1.999 7.321 2.297 6.856.814 14.058.211 20.934.622 7.172.43 14.388 1.597 21.59 1.664q5.186.056 10.361-.208c1.86-.098 4.351-.356 6.148-.354a31 31 0 0 0-.054 2.483l-42.8-.028-12.51.015c-1.634.003-4.67.105-6.159-.02 1.08-.707 48.674.28 54.27-.124 1.271-.092 6.155.408 6.977-.394-.14-.7-.11-.879-.055-1.582-2.176-.093-4.913.334-7.317.38-4.116.077-7.798.096-12.026.05-3.097.112-7.534-1.112-10.484-.695-2.437.344-4.643.536-7.116.741-5.55.46-10.947.859-16.523.837-9.614-.037-16.379-4.98-23.895-10.217-2.793-1.945-6.15-3.804-9.476-4.717-10.834-2.614-21.962 4.657-32.029 7.755-4.229 1.303-6.432 2.07-10.86 2.178-7.23.177-11.253-3.549-17.344-6.523-2.064-1.007-5.069-2.178-7.262-3.003-12.75-4.79-26.467-7.077-39.98-8.38-8.294-.8-17.815-1.375-26.078-.248-11.33 1.545-24.035 5.953-34.181 11.223-8.042 4.18-14.083 9.523-23.46 11.06-4.833.793-10.372 1.383-15.257.154-1.234-.311-2.287-.995-3.316-1.697z"/><path fill="#c2c0c1" d="M298.354.869c.082.626-.015.769.363 1.147.461.032.82.028 1.283.02v209.543H3.157l-.844-.271-.26-.054c1.02-.232 7.435-.186 8.756-.185l19.428.059 67.53.007 21.744-.06c3.602-.003 8.647.173 12.07-.05l68.543-.032 23.883-.003c4.08-.002 8.566.09 12.599-.024 1.488.127 4.525.024 6.16.021l12.51-.015 42.8.028a31 31 0 0 1 .053-2.483c.126-.67.066-2.145.066-2.856-.006-15.723.033-31.448-.008-47.173l.029-103.225.001-35.26-.001-11.338c-.002-2.144-.063-4.702.057-6.808-.002-.21.06-.754.08-.988"/><path fill="#487185" d="M298.273 1.857c.179 1.938.079 5.131.075 7.172l-.016 12.791.014 41.774-.001 97.181c-.002 16.754-.169 33.807.03 50.528l-296.062.005-.26-.054c1.02-.232 7.435-.186 8.756-.185l19.428.059 67.53.007 21.744-.06c3.602-.003 8.647.173 12.07-.05l68.543-.032 23.883-.003c4.08-.002 8.566.09 12.599-.024 1.488.126 4.525.024 6.16.021l12.51-.015 42.8.028a31 31 0 0 1 .053-2.483c.126-.67.066-2.145.066-2.856-.006-15.723.033-31.448-.008-47.173l.029-103.225.001-35.26-.001-11.338c-.002-2.144-.063-4.702.057-6.808"/><path fill="#fdfefe" d="M0 0h300v2.035a13 13 0 0 1-1.283-.02c-.378-.377-.281-.52-.363-1.146H.939c.14 1.873.072 4.306.072 6.236l-.005 10.769.001 35.343.002 11.465c0 1.873-.067 4.304.027 6.144-.162 4.182-.033 9.162-.03 13.388L1.01 109.3l-.007 24.606c-.001 3.932-.138 8.792.02 12.668-.188 1.755-.064 5.908-.06 7.86l.025 15.34.01 18.246c.001 2.19-.133 6.864.044 8.936.002 2.866-.122 7.002.061 9.788l.091 1.02c-.014 1.145-.086 2.212-.11 3.321 2.03-.173 5.114-.114 7.238-.12l12.784.016 37.378.043 47.757.022 17.063-.08c2.627 0 5.677-.067 8.277.06-3.423.222-8.468.046-12.07.049l-21.744.06-67.53-.007-19.428-.059c-1.32-.001-7.735-.047-8.756.185l.26.054.844.27H0z"/><path fill="#579dc4" d="M2.053 211.254c-.49.071-.824.17-1.143-.214-.243-2.617-.043-9.323-.045-12.247l-.002-25.821.003-82L.87 27.766.863 9.988C.858 8.04.722 2.525.939.868c.14 1.874.072 4.307.072 6.237l-.005 10.769.001 35.343.002 11.465c0 1.873-.067 4.304.027 6.144-.162 4.182-.033 9.162-.031 13.388L1.01 109.3l-.007 24.606c-.001 3.932-.138 8.792.02 12.668-.188 1.755-.064 5.908-.06 7.86l.025 15.34.01 18.246c.001 2.19-.133 6.864.044 8.936.002 2.866-.122 7.002.061 9.788l.091 1.02c-.014 1.145-.086 2.212-.11 3.321 2.03-.173 5.114-.114 7.238-.12l12.784.016 37.378.043 47.757.022 17.063-.08c2.627 0 5.677-.067 8.277.06-3.423.222-8.468.046-12.07.049l-21.744.06-67.53-.007-19.428-.059c-1.32-.001-7.735-.047-8.756.185"/><path fill="#1962a2" d="M297.998 93.871c.148-6.897.004-14.37.004-21.336l-.045-44.793-.024-17.24c-.001-1.977-.114-6.973.117-8.656.107 6.882.025 13.948.027 20.845l.022 36.585.008 23.084c.002 3.464.162 8.237-.017 11.544z"/></g></svg></svg>